<svg fill="none" height="87" viewBox="0 0 208 87" width="208" xmlns="http://www.w3.org/2000/svg">
    <path
        d="M186 49.0002C184.72 57.1958 177.642 62.8329 165.844 62.8329C157.951 62.8329 152.681 59.4822 149.5 54.5001C147.896 61.1648 144.401 67.6232 138.418 73.6059C138.114 73.9104 137.807 74.2085 137.5 74.5002C144.196 81.4213 153.297 86.0561 165.844 86.0561C192.229 86.0561 205.679 66.5967 207 49.0002H186Z"
        fill="#C0FF0C" />
    <path
        d="M41.2538 0.000244141C23.3024 0.302049 0 13.9048 0 41.3995C0 69.0452 23.3024 82.0522 41.2538 82.3406V61.0983C32.2876 60.7946 23.376 53.7998 23.376 41.3995C23.376 28.551 32.2876 21.5463 41.2538 21.2424V0.000244141Z"
        fill="#0D99FF" />
    <path
        d="M207.338 43.4965C207.338 43.7268 207.336 43.9581 207.331 44.1902H186.088C186.511 32.7682 176.937 24.6262 165.933 24.6262C154.213 24.6262 147.322 32.7519 146.345 41.3705C147.006 51.7483 143.791 62.859 134.275 72.3754C115.139 91.5115 90.1321 84.9392 76.9873 72.9377L92.0359 57.8891C98.6936 63.3693 109.457 64.3502 117.853 55.9542C126.553 47.2548 125.591 36.4716 120.112 29.8127C133.359 16.5663 145.281 0.76535 165.933 0.76535C193.74 0.76535 207.338 25.094 207.338 43.4965Z"
        fill="#0D99FF" />
    <path
        d="M46 82.1602V60.8174C54.2439 59.5933 61.9608 52.7528 61.9608 41.3071C61.9608 29.4478 54.2439 22.567 46 21.3389V0C55.8688 0.708172 66.9746 5.28396 74.836 13.8198C90.3635 -2.29944 115.67 -2.90927 132.473 11.7103L117.388 26.7948C110.709 21.8037 100.434 21.2682 92.0193 29.6827C83.8983 37.8037 84.4614 48.0513 89.4551 54.7277C76.6847 66.8952 64.8911 80.8622 46 82.1602Z"
        fill="#C0FF0C" />
</svg>
