<svg fill="none" height="127" viewBox="0 0 409 127" width="409" xmlns="http://www.w3.org/2000/svg">
    <path
        d="M48.6532 79.9101C45.5417 80.7587 42.713 81.3244 38.7528 81.3244C33.5198 81.3244 32.6712 77.3643 32.6712 74.1113V44.8345H48.3703V26.4481H32.6712V9.19319H10.3247V26.4481H0V44.8345H10.3247V74.1113C10.3247 96.7407 20.6493 100.842 32.9541 100.842C40.4501 100.842 45.5417 99.8522 48.6532 98.4379V79.9101Z"
        fill="white" />
    <path
        d="M96 25.3209V45.1352C103.369 46.5416 110.091 52.8543 110.091 63.5037C110.091 73.7817 103.369 80.0482 96 81.4488V101.269C112.18 99.8617 131.589 87.7791 131.589 63.5037C131.589 39.361 112.18 26.789 96 25.3209Z"
        fill="white" />
    <path
        d="M90 101.296V81.5071C82.5306 80.2305 75.7223 73.9319 75.7223 63.5037C75.7223 52.6986 82.5306 46.358 90 45.0767V25.2926C73.7558 26.6192 54.083 39.1975 54.083 63.5037C54.083 87.9436 73.7558 100.025 90 101.296Z"
        fill="white" />
    <path clip-rule="evenodd"
        d="M214.978 63.0794C214.978 37.7628 195.602 25.1752 178.771 25.1752C167.457 25.1752 160.809 31.6812 159.819 33.2369V26.4481H137.473V126.866H159.819V92.6391C160.809 95.1849 167.457 101.408 178.771 101.408C195.602 101.408 214.978 89.3861 214.978 63.0794ZM193.339 63.0794C193.339 75.2427 185.136 81.7487 175.518 81.7487C166.325 81.7487 158.829 75.3842 158.829 63.0794C158.829 51.199 166.325 44.8345 175.518 44.8345C185.136 44.8345 193.339 51.3404 193.339 63.0794Z"
        fill="white" fill-rule="evenodd" />
    <path
        d="M283.967 33.7902C276.547 28.0265 267.387 25.1752 259.444 25.1752C242.755 25.1752 220.691 37.7628 220.691 63.5037C220.691 73.919 224.264 82.0898 229.621 88.136L244.672 73.0855C243.205 70.4497 242.33 67.2421 242.33 63.5037C242.33 51.3404 250.958 44.8345 259.444 44.8345C262.991 44.8345 266.589 45.9716 269.574 48.1837L283.967 33.7902Z"
        fill="white" />
    <path
        d="M288.409 37.8338L273.682 52.5607C275.55 55.4405 276.699 59.1016 276.699 63.5037C276.699 75.2427 267.93 81.7487 259.444 81.7487C255.541 81.7487 251.608 80.3726 248.499 77.7441L233.959 92.284C241.538 98.4418 251.154 101.408 259.444 101.408C276.133 101.408 298.197 89.3861 298.197 63.5037C298.197 52.6023 294.239 44.0599 288.409 37.8338Z"
        fill="white" />
    <path d="M326 99.9936V0H304V99.9936H326Z" fill="white" />
    <path
        d="M387.227 67H408.862C406.974 90.4705 386.166 101.408 370.247 101.408C354.328 101.408 333.52 90.4705 331.633 67H353.405C354.929 76.5274 362.645 81.7487 370.247 81.7487C377.849 81.7487 385.678 76.5274 387.227 67Z"
        fill="white" />
    <path
        d="M408.929 61C407.551 36.9463 386.386 25.1752 370.247 25.1752C354.108 25.1752 332.944 36.9463 331.565 61H353.261C354.357 50.4498 362.363 44.8345 370.247 44.8345C378.131 44.8345 386.259 50.4498 387.373 61H408.929Z"
        fill="white" />
</svg>
